<svg xmlns="http://www.w3.org/2000/svg" viewBox="0 0 41.72 14"><defs><style>.cls-1,.cls-2{fill:#3d2875;}.cls-2,.cls-4,.cls-5,.cls-6,.cls-7{font-size:6.57px;font-family:Montserrat-ExtraBold, Montserrat ExtraBold;font-weight:800;}.cls-3{letter-spacing:-0.01em;}.cls-4{letter-spacing:-0.01em;}.cls-5{letter-spacing:0em;}.cls-6{letter-spacing:0.01em;}.cls-7{letter-spacing:0em;}</style></defs><g id="Layer_2" data-name="Layer 2"><g id="Objects"><path class="cls-1" d="M11,5.29v5.92a.79.79,0,0,1-.79.79H3.8a.82.82,0,0,0-.8.83v.34a.82.82,0,0,0,.8.83h8.41a.79.79,0,0,0,.79-.79V5.29a.79.79,0,0,0-.8-.79h0C11.76,4.5,11,4.5,11,5.29Z"/><rect class="cls-1" width="10" height="10" rx="1.21"/><text class="cls-2" transform="translate(18.59 8.72)"><tspan class="cls-3">y</tspan><tspan x="3.03" y="0">our</tspan><tspan class="cls-4" x="12.41" y="0">t</tspan><tspan class="cls-5" x="14.55" y="0">e</tspan><tspan class="cls-6" x="17.82" y="0">x</tspan><tspan class="cls-7" x="20.95" y="0">t</tspan></text></g></g></svg>
